G75*
%MOIN*%
%OFA0B0*%
%FSLAX24Y24*%
%IPPOS*%
%LPD*%
%AMOC8*
5,1,8,0,0,1.08239X$1,22.5*
%
%ADD10C,0.0000*%
D10*
X003998Y000960D02*
X003998Y003957D01*
X003998Y000960D02*
X004000Y000929D01*
X004006Y000898D01*
X004015Y000868D01*
X004028Y000839D01*
X004044Y000812D01*
X004063Y000788D01*
X004086Y000765D01*
X004110Y000746D01*
X004137Y000730D01*
X004166Y000717D01*
X004196Y000708D01*
X004227Y000702D01*
X004258Y000700D01*
X034228Y000700D01*
X034259Y000702D01*
X034290Y000708D01*
X034320Y000717D01*
X034349Y000730D01*
X034376Y000746D01*
X034400Y000765D01*
X034423Y000788D01*
X034442Y000812D01*
X034458Y000839D01*
X034471Y000868D01*
X034480Y000898D01*
X034486Y000929D01*
X034488Y000960D01*
X034488Y001733D01*
X034490Y001793D01*
X034496Y001853D01*
X034505Y001912D01*
X034519Y001970D01*
X034536Y002028D01*
X034556Y002084D01*
X034581Y002139D01*
X034608Y002192D01*
X034640Y002244D01*
X034674Y002293D01*
X034711Y002340D01*
X034752Y002384D01*
X034795Y002426D01*
X034840Y002465D01*
X034888Y002501D01*
X034939Y002533D01*
X034991Y002563D01*
X035045Y002589D01*
X035101Y002611D01*
X035158Y002630D01*
X035216Y002646D01*
X035275Y002657D01*
X035334Y002665D01*
X035394Y002669D01*
X035454Y002669D01*
X035514Y002665D01*
X035573Y002657D01*
X035632Y002646D01*
X035690Y002630D01*
X035747Y002611D01*
X035803Y002589D01*
X035857Y002563D01*
X035909Y002533D01*
X035960Y002501D01*
X036008Y002465D01*
X036053Y002426D01*
X036096Y002384D01*
X036137Y002340D01*
X036174Y002293D01*
X036208Y002244D01*
X036240Y002192D01*
X036267Y002139D01*
X036292Y002084D01*
X036312Y002028D01*
X036329Y001970D01*
X036343Y001912D01*
X036352Y001853D01*
X036358Y001793D01*
X036360Y001733D01*
X036360Y001241D01*
X036359Y001241D02*
X036361Y001209D01*
X036366Y001178D01*
X036375Y001147D01*
X036387Y001117D01*
X036403Y001089D01*
X036421Y001063D01*
X036442Y001039D01*
X036466Y001018D01*
X036492Y001000D01*
X036520Y000984D01*
X036550Y000972D01*
X036581Y000963D01*
X036612Y000958D01*
X036644Y000956D01*
X036676Y000958D01*
X036707Y000963D01*
X036738Y000972D01*
X036768Y000984D01*
X036796Y001000D01*
X036822Y001018D01*
X036846Y001039D01*
X036867Y001063D01*
X036885Y001089D01*
X036901Y001117D01*
X036913Y001147D01*
X036922Y001178D01*
X036927Y001209D01*
X036929Y001241D01*
X036930Y001241D02*
X036932Y001347D01*
X036938Y001452D01*
X036947Y001558D01*
X036960Y001663D01*
X036977Y001767D01*
X036998Y001871D01*
X037022Y001974D01*
X037050Y002076D01*
X037082Y002177D01*
X037117Y002276D01*
X037156Y002375D01*
X037198Y002472D01*
X037243Y002567D01*
X037292Y002661D01*
X037345Y002753D01*
X037400Y002843D01*
X037459Y002931D01*
X037521Y003017D01*
X037586Y003100D01*
X037654Y003181D01*
X037724Y003260D01*
X037798Y003336D01*
X037874Y003410D01*
X037953Y003480D01*
X038034Y003548D01*
X038117Y003613D01*
X038203Y003675D01*
X038291Y003734D01*
X038381Y003789D01*
X038473Y003842D01*
X038567Y003891D01*
X038662Y003936D01*
X038759Y003978D01*
X038858Y004017D01*
X038957Y004052D01*
X039058Y004084D01*
X039160Y004112D01*
X039263Y004136D01*
X039367Y004157D01*
X039471Y004174D01*
X039576Y004187D01*
X039682Y004196D01*
X039787Y004202D01*
X039893Y004204D01*
X040173Y004204D01*
X040204Y004206D01*
X040235Y004212D01*
X040265Y004221D01*
X040294Y004234D01*
X040321Y004250D01*
X040345Y004269D01*
X040368Y004292D01*
X040387Y004316D01*
X040403Y004343D01*
X040416Y004372D01*
X040425Y004402D01*
X040431Y004433D01*
X040433Y004464D01*
X040433Y023695D01*
X040431Y023725D01*
X040426Y023755D01*
X040417Y023784D01*
X040406Y023811D01*
X040391Y023837D01*
X040373Y023861D01*
X040352Y023883D01*
X040329Y023903D01*
X040304Y023920D01*
X040277Y023933D01*
X040249Y023944D01*
X040220Y023951D01*
X040190Y023954D01*
X040190Y023955D02*
X040068Y023965D01*
X039946Y023979D01*
X039825Y023996D01*
X039704Y024018D01*
X039584Y024043D01*
X039465Y024072D01*
X039347Y024104D01*
X039230Y024140D01*
X039114Y024180D01*
X038999Y024224D01*
X038886Y024271D01*
X038774Y024322D01*
X038664Y024376D01*
X038556Y024433D01*
X038450Y024494D01*
X038345Y024558D01*
X038243Y024626D01*
X038143Y024696D01*
X038045Y024770D01*
X037949Y024847D01*
X037856Y024927D01*
X037765Y025009D01*
X037678Y025095D01*
X037592Y025183D01*
X037510Y025274D01*
X037430Y025367D01*
X037354Y025463D01*
X037280Y025561D01*
X037210Y025661D01*
X037143Y025764D01*
X037079Y025868D01*
X037018Y025975D01*
X036961Y026083D01*
X036907Y026193D01*
X036857Y026305D01*
X036810Y026418D01*
X036766Y026533D01*
X036727Y026649D01*
X036691Y026766D01*
X036658Y026884D01*
X036630Y027004D01*
X036605Y027124D01*
X036584Y027245D01*
X036567Y027366D01*
X036553Y027488D01*
X036544Y027610D01*
X036538Y027732D01*
X036536Y027855D01*
X036535Y027855D02*
X036535Y030852D01*
X036533Y030883D01*
X036527Y030914D01*
X036518Y030944D01*
X036505Y030973D01*
X036489Y031000D01*
X036470Y031024D01*
X036447Y031047D01*
X036423Y031066D01*
X036396Y031082D01*
X036367Y031095D01*
X036337Y031104D01*
X036306Y031110D01*
X036275Y031112D01*
X006305Y031112D01*
X006274Y031110D01*
X006243Y031104D01*
X006213Y031095D01*
X006184Y031082D01*
X006157Y031066D01*
X006133Y031047D01*
X006110Y031024D01*
X006091Y031000D01*
X006075Y030973D01*
X006062Y030944D01*
X006053Y030914D01*
X006047Y030883D01*
X006045Y030852D01*
X006045Y030079D01*
X006043Y030019D01*
X006037Y029959D01*
X006028Y029900D01*
X006014Y029842D01*
X005997Y029784D01*
X005977Y029728D01*
X005952Y029673D01*
X005925Y029620D01*
X005893Y029568D01*
X005859Y029519D01*
X005822Y029472D01*
X005781Y029428D01*
X005738Y029386D01*
X005693Y029347D01*
X005645Y029311D01*
X005594Y029279D01*
X005542Y029249D01*
X005488Y029223D01*
X005432Y029201D01*
X005375Y029182D01*
X005317Y029166D01*
X005258Y029155D01*
X005199Y029147D01*
X005139Y029143D01*
X005079Y029143D01*
X005019Y029147D01*
X004960Y029155D01*
X004901Y029166D01*
X004843Y029182D01*
X004786Y029201D01*
X004730Y029223D01*
X004676Y029249D01*
X004624Y029279D01*
X004573Y029311D01*
X004525Y029347D01*
X004480Y029386D01*
X004437Y029428D01*
X004396Y029472D01*
X004359Y029519D01*
X004325Y029568D01*
X004293Y029620D01*
X004266Y029673D01*
X004241Y029728D01*
X004221Y029784D01*
X004204Y029842D01*
X004190Y029900D01*
X004181Y029959D01*
X004175Y030019D01*
X004173Y030079D01*
X004173Y030571D01*
X004174Y030571D02*
X004172Y030604D01*
X004166Y030637D01*
X004157Y030669D01*
X004144Y030699D01*
X004127Y030728D01*
X004107Y030754D01*
X004085Y030778D01*
X004059Y030800D01*
X004031Y030818D01*
X004002Y030833D01*
X003971Y030844D01*
X003938Y030852D01*
X003906Y030856D01*
X003872Y030856D01*
X003840Y030852D01*
X003807Y030844D01*
X003776Y030833D01*
X003747Y030818D01*
X003719Y030800D01*
X003693Y030778D01*
X003671Y030754D01*
X003651Y030728D01*
X003634Y030699D01*
X003621Y030669D01*
X003612Y030637D01*
X003606Y030604D01*
X003604Y030571D01*
X003602Y030465D01*
X003596Y030360D01*
X003587Y030254D01*
X003574Y030149D01*
X003557Y030045D01*
X003536Y029941D01*
X003512Y029838D01*
X003484Y029736D01*
X003452Y029635D01*
X003417Y029536D01*
X003378Y029437D01*
X003336Y029340D01*
X003291Y029245D01*
X003242Y029151D01*
X003189Y029059D01*
X003134Y028969D01*
X003075Y028881D01*
X003013Y028795D01*
X002948Y028712D01*
X002880Y028631D01*
X002810Y028552D01*
X002736Y028476D01*
X002660Y028402D01*
X002581Y028332D01*
X002500Y028264D01*
X002417Y028199D01*
X002331Y028137D01*
X002243Y028078D01*
X002153Y028023D01*
X002061Y027970D01*
X001967Y027921D01*
X001872Y027876D01*
X001775Y027834D01*
X001676Y027795D01*
X001577Y027760D01*
X001476Y027728D01*
X001374Y027700D01*
X001271Y027676D01*
X001167Y027655D01*
X001063Y027638D01*
X000958Y027625D01*
X000852Y027616D01*
X000747Y027610D01*
X000641Y027608D01*
X000360Y027608D01*
X000329Y027606D01*
X000298Y027600D01*
X000268Y027591D01*
X000239Y027578D01*
X000212Y027562D01*
X000188Y027543D01*
X000165Y027520D01*
X000146Y027496D01*
X000130Y027469D01*
X000117Y027440D01*
X000108Y027410D01*
X000102Y027379D01*
X000100Y027348D01*
X000100Y008117D01*
X000102Y008087D01*
X000107Y008057D01*
X000116Y008028D01*
X000127Y008001D01*
X000142Y007975D01*
X000160Y007951D01*
X000181Y007929D01*
X000204Y007909D01*
X000229Y007892D01*
X000256Y007879D01*
X000284Y007868D01*
X000313Y007861D01*
X000343Y007858D01*
X000343Y007857D02*
X000465Y007847D01*
X000587Y007833D01*
X000708Y007816D01*
X000829Y007794D01*
X000949Y007769D01*
X001068Y007740D01*
X001186Y007708D01*
X001303Y007672D01*
X001419Y007632D01*
X001534Y007588D01*
X001647Y007541D01*
X001759Y007490D01*
X001869Y007436D01*
X001977Y007379D01*
X002083Y007318D01*
X002188Y007254D01*
X002290Y007186D01*
X002390Y007116D01*
X002488Y007042D01*
X002584Y006965D01*
X002677Y006885D01*
X002768Y006803D01*
X002855Y006717D01*
X002941Y006629D01*
X003023Y006538D01*
X003103Y006445D01*
X003179Y006349D01*
X003253Y006251D01*
X003323Y006151D01*
X003390Y006048D01*
X003454Y005944D01*
X003515Y005837D01*
X003572Y005729D01*
X003626Y005619D01*
X003676Y005507D01*
X003723Y005394D01*
X003767Y005279D01*
X003806Y005163D01*
X003842Y005046D01*
X003875Y004928D01*
X003903Y004808D01*
X003928Y004688D01*
X003949Y004567D01*
X003966Y004446D01*
X003980Y004324D01*
X003989Y004202D01*
X003995Y004080D01*
X003997Y003957D01*
X019400Y007950D02*
X019400Y016650D01*
X019402Y016680D01*
X019407Y016710D01*
X019416Y016739D01*
X019429Y016766D01*
X019444Y016792D01*
X019463Y016816D01*
X019484Y016837D01*
X019508Y016856D01*
X019534Y016871D01*
X019561Y016884D01*
X019590Y016893D01*
X019620Y016898D01*
X019650Y016900D01*
X019680Y016898D01*
X019710Y016893D01*
X019739Y016884D01*
X019766Y016871D01*
X019792Y016856D01*
X019816Y016837D01*
X019837Y016816D01*
X019856Y016792D01*
X019871Y016766D01*
X019884Y016739D01*
X019893Y016710D01*
X019898Y016680D01*
X019900Y016650D01*
X019900Y007950D01*
X019650Y007700D02*
X019620Y007702D01*
X019590Y007707D01*
X019561Y007716D01*
X019534Y007729D01*
X019508Y007744D01*
X019484Y007763D01*
X019463Y007784D01*
X019444Y007808D01*
X019429Y007834D01*
X019416Y007861D01*
X019407Y007890D01*
X019402Y007920D01*
X019400Y007950D01*
X019650Y007700D02*
X019680Y007702D01*
X019710Y007707D01*
X019739Y007716D01*
X019766Y007729D01*
X019792Y007744D01*
X019816Y007763D01*
X019837Y007784D01*
X019856Y007808D01*
X019871Y007834D01*
X019884Y007861D01*
X019893Y007890D01*
X019898Y007920D01*
X019900Y007950D01*
X020510Y016700D02*
X023166Y016700D01*
X023343Y016773D02*
X024941Y018371D01*
X024941Y018370D02*
X024961Y018393D01*
X024978Y018418D01*
X024992Y018445D01*
X025003Y018474D01*
X025010Y018503D01*
X025014Y018534D01*
X025013Y018564D01*
X025010Y018594D01*
X025002Y018624D01*
X024991Y018652D01*
X024976Y018679D01*
X024959Y018704D01*
X024938Y018726D01*
X024938Y018727D02*
X024937Y018728D01*
X024936Y018728D02*
X024914Y018748D01*
X024889Y018764D01*
X024862Y018778D01*
X024834Y018788D01*
X024805Y018795D01*
X024775Y018799D01*
X024745Y018798D01*
X024716Y018795D01*
X024687Y018787D01*
X024659Y018777D01*
X024632Y018763D01*
X024608Y018746D01*
X024585Y018726D01*
X024586Y018726D02*
X023133Y017273D01*
X022956Y017200D02*
X020510Y017200D01*
X020480Y017198D01*
X020450Y017193D01*
X020421Y017184D01*
X020394Y017171D01*
X020368Y017156D01*
X020344Y017137D01*
X020323Y017116D01*
X020304Y017092D01*
X020289Y017066D01*
X020276Y017039D01*
X020267Y017010D01*
X020262Y016980D01*
X020260Y016950D01*
X020262Y016920D01*
X020267Y016890D01*
X020276Y016861D01*
X020289Y016834D01*
X020304Y016808D01*
X020323Y016784D01*
X020344Y016763D01*
X020368Y016744D01*
X020394Y016729D01*
X020421Y016716D01*
X020450Y016707D01*
X020480Y016702D01*
X020510Y016700D01*
X022956Y017200D02*
X022984Y017202D01*
X023012Y017206D01*
X023039Y017214D01*
X023064Y017225D01*
X023089Y017238D01*
X023112Y017255D01*
X023133Y017273D01*
X023343Y016773D02*
X023322Y016755D01*
X023299Y016738D01*
X023274Y016725D01*
X023249Y016714D01*
X023222Y016706D01*
X023194Y016702D01*
X023166Y016700D01*
X018607Y022500D02*
X018609Y022539D01*
X018615Y022578D01*
X018625Y022616D01*
X018638Y022653D01*
X018655Y022688D01*
X018675Y022722D01*
X018699Y022753D01*
X018726Y022782D01*
X018755Y022808D01*
X018787Y022831D01*
X018821Y022851D01*
X018857Y022867D01*
X018894Y022879D01*
X018933Y022888D01*
X018972Y022893D01*
X019011Y022894D01*
X019050Y022891D01*
X019089Y022884D01*
X019126Y022873D01*
X019163Y022859D01*
X019198Y022841D01*
X019231Y022820D01*
X019262Y022795D01*
X019290Y022768D01*
X019315Y022738D01*
X019337Y022705D01*
X019356Y022671D01*
X019371Y022635D01*
X019383Y022597D01*
X019391Y022559D01*
X019395Y022520D01*
X019395Y022480D01*
X019391Y022441D01*
X019383Y022403D01*
X019371Y022365D01*
X019356Y022329D01*
X019337Y022295D01*
X019315Y022262D01*
X019290Y022232D01*
X019262Y022205D01*
X019231Y022180D01*
X019198Y022159D01*
X019163Y022141D01*
X019126Y022127D01*
X019089Y022116D01*
X019050Y022109D01*
X019011Y022106D01*
X018972Y022107D01*
X018933Y022112D01*
X018894Y022121D01*
X018857Y022133D01*
X018821Y022149D01*
X018787Y022169D01*
X018755Y022192D01*
X018726Y022218D01*
X018699Y022247D01*
X018675Y022278D01*
X018655Y022312D01*
X018638Y022347D01*
X018625Y022384D01*
X018615Y022422D01*
X018609Y022461D01*
X018607Y022500D01*
X000556Y022500D02*
X000558Y022539D01*
X000564Y022578D01*
X000574Y022616D01*
X000587Y022653D01*
X000604Y022688D01*
X000624Y022722D01*
X000648Y022753D01*
X000675Y022782D01*
X000704Y022808D01*
X000736Y022831D01*
X000770Y022851D01*
X000806Y022867D01*
X000843Y022879D01*
X000882Y022888D01*
X000921Y022893D01*
X000960Y022894D01*
X000999Y022891D01*
X001038Y022884D01*
X001075Y022873D01*
X001112Y022859D01*
X001147Y022841D01*
X001180Y022820D01*
X001211Y022795D01*
X001239Y022768D01*
X001264Y022738D01*
X001286Y022705D01*
X001305Y022671D01*
X001320Y022635D01*
X001332Y022597D01*
X001340Y022559D01*
X001344Y022520D01*
X001344Y022480D01*
X001340Y022441D01*
X001332Y022403D01*
X001320Y022365D01*
X001305Y022329D01*
X001286Y022295D01*
X001264Y022262D01*
X001239Y022232D01*
X001211Y022205D01*
X001180Y022180D01*
X001147Y022159D01*
X001112Y022141D01*
X001075Y022127D01*
X001038Y022116D01*
X000999Y022109D01*
X000960Y022106D01*
X000921Y022107D01*
X000882Y022112D01*
X000843Y022121D01*
X000806Y022133D01*
X000770Y022149D01*
X000736Y022169D01*
X000704Y022192D01*
X000675Y022218D01*
X000648Y022247D01*
X000624Y022278D01*
X000604Y022312D01*
X000587Y022347D01*
X000574Y022384D01*
X000564Y022422D01*
X000558Y022461D01*
X000556Y022500D01*
M02*
