%
M48
M72
T01C0.0315
T02C0.0320
T03C0.0354
T04C0.0370
T05C0.0394
T06C0.0400
T07C0.0433
T08C0.0512
T09C0.0787
T10C0.0920
T11C0.1024
%
T01
X18800Y8700
X18800Y9700
X18800Y10900
X18800Y11900
X18800Y13100
X18800Y14100
X18800Y15300
X18800Y16300
X21800Y16300
X21800Y15300
X21800Y14100
X21800Y13100
X21800Y11900
X21800Y10900
X21800Y9700
X21800Y8700
X33900Y26200
X34900Y26200
X34900Y29200
X33900Y29200
T02
X36000Y24900
X36000Y23900
X36000Y20000
X37600Y19400
X38600Y19400
X39700Y20000
X38600Y17650
X37600Y17650
X36600Y17650
X36000Y19000
X39700Y17000
X37400Y14700
X37400Y13700
X37400Y12700
X37400Y11700
X34400Y11700
X34400Y12700
X34400Y13700
X34400Y14700
X28600Y14700
X28600Y13700
X28600Y12700
X28600Y11700
X25600Y11700
X25600Y12700
X25600Y13700
X25600Y14700
X25600Y8500
X26600Y8500
X27600Y8400
X28600Y8400
X29600Y8400
X30600Y8400
X31800Y8500
X32800Y8500
X33900Y8400
X34900Y8400
X35900Y8400
X36900Y8400
X38100Y8200
X36900Y5400
X35900Y5400
X34900Y5400
X33900Y5400
X32900Y4200
X31700Y4200
X30600Y5400
X29600Y5400
X28600Y5400
X27600Y5400
X26500Y4200
X24500Y4600
X24500Y6600
X24500Y7850
X22500Y7850
X26500Y7200
X31700Y7200
X32900Y7200
X38100Y5200
T03
X37600Y20916
X37600Y22884
T04
X37900Y16100
X36900Y16100
X35900Y16100
X34900Y16100
X33900Y16100
X32900Y16100
X31900Y16100
X30900Y16100
X29900Y16100
X28900Y16100
X27900Y16100
X26900Y16100
X25900Y16100
X24900Y16100
X24900Y10100
X25900Y10100
X26900Y10100
X27900Y10100
X28900Y10100
X29900Y10100
X30900Y10100
X31900Y10100
X32900Y10100
X33900Y10100
X34900Y10100
X35900Y10100
X36900Y10100
X37900Y10100
X38900Y10100
X38900Y16100
T05
X34100Y21400
X34100Y24400
X23100Y24400
X23100Y18400
T06
X20400Y18700
X21200Y21700
X22500Y6600
X22500Y4600
T07
X23112Y2300
X24490Y2300
X25868Y2300
X27246Y2300
X28624Y2300
X30002Y2300
X31380Y2300
X32757Y2300
X21734Y2300
X20356Y2300
X18978Y2300
X17600Y2300
T08
X15961Y5212
X15961Y8188
X15961Y10212
X15961Y13188
X15961Y15212
X15961Y18188
X10008Y18188
X8024Y15212
X10008Y13188
X8024Y10212
X10008Y8188
X8024Y5212
X6039Y8188
X6039Y13188
X6039Y18188
X8639Y26812
X8639Y29788
X14592Y26812
X16576Y29788
X18561Y26812
X22439Y29888
X24424Y26912
X26408Y29888
X32361Y29888
X32361Y26912
T09
X19001Y22500
X950Y22500
T10
X6600Y2700
X8600Y2700
X10600Y2700
X12600Y2700
X14600Y2700
X2600Y9200
X2600Y12200
X2600Y15200
X3100Y18300
X20200Y24700
X20700Y27500
T11
X15714Y24331
X15714Y21181
M30
