G75*
%MOIN*%
%OFA0B0*%
%FSLAX24Y24*%
%IPPOS*%
%LPD*%
%AMOC8*
5,1,8,0,0,1.08239X$1,22.5*
%
%ADD10C,0.0515*%
%ADD11C,0.1424*%
%ADD12C,0.0984*%
%ADD13C,0.0768*%
%ADD14C,0.0900*%
%ADD15C,0.0750*%
%ADD16C,0.0520*%
%ADD17C,0.1650*%
%ADD18C,0.0650*%
%ADD19C,0.0600*%
%ADD20C,0.0560*%
%ADD21C,0.0700*%
%ADD22C,0.0787*%
%ADD23C,0.1500*%
%ADD24C,0.0400*%
%ADD25C,0.1250*%
%ADD26C,0.0600*%
%ADD27C,0.0160*%
%ADD28C,0.1000*%
%ADD29C,0.0800*%
%ADD30C,0.1200*%
%ADD31C,0.2000*%
%ADD32C,0.0300*%
%ADD33C,0.0320*%
%ADD34C,0.0200*%
D10*
X018800Y008700D03*
X018800Y009700D03*
X018800Y010900D03*
X018800Y011900D03*
X018800Y013100D03*
X018800Y014100D03*
X018800Y015300D03*
X018800Y016300D03*
X021800Y016300D03*
X021800Y015300D03*
X021800Y014100D03*
X021800Y013100D03*
X021800Y011900D03*
X021800Y010900D03*
X021800Y009700D03*
X021800Y008700D03*
X033900Y026200D03*
X034900Y026200D03*
X034900Y029200D03*
X033900Y029200D03*
D11*
X015714Y024331D03*
X015714Y021181D03*
D12*
X010008Y018188D03*
X008024Y015212D03*
X010008Y013188D03*
X008024Y010212D03*
X010008Y008188D03*
X008024Y005212D03*
X006039Y008188D03*
X006039Y013188D03*
X006039Y018188D03*
X014592Y026812D03*
X016576Y029788D03*
X018561Y026812D03*
X022439Y029888D03*
X024424Y026912D03*
X026408Y029888D03*
D13*
X032361Y029888D03*
X032361Y026912D03*
X015961Y018188D03*
X015961Y015212D03*
X015961Y013188D03*
X015961Y010212D03*
X015961Y008188D03*
X015961Y005212D03*
X008639Y026812D03*
X008639Y029788D03*
D14*
X034100Y024400D03*
X034100Y021400D03*
D15*
X023100Y018400D03*
X023100Y024400D03*
D16*
X025600Y014700D03*
X025600Y013700D03*
X025600Y012700D03*
X025600Y011700D03*
X028600Y011700D03*
X028600Y012700D03*
X028600Y013700D03*
X028600Y014700D03*
X034400Y014700D03*
X034400Y013700D03*
X034400Y012700D03*
X034400Y011700D03*
X037400Y011700D03*
X037400Y012700D03*
X037400Y013700D03*
X037400Y014700D03*
X039700Y017000D03*
X038600Y017650D03*
X037600Y017650D03*
X036600Y017650D03*
X036000Y019000D03*
X037600Y019400D03*
X038600Y019400D03*
X039700Y020000D03*
X036000Y020000D03*
X036000Y023900D03*
X036000Y024900D03*
X032800Y008500D03*
X033900Y008400D03*
X034900Y008400D03*
X035900Y008400D03*
X036900Y008400D03*
X038100Y008200D03*
X036900Y005400D03*
X035900Y005400D03*
X034900Y005400D03*
X033900Y005400D03*
X032900Y004200D03*
X031700Y004200D03*
X030600Y005400D03*
X029600Y005400D03*
X028600Y005400D03*
X027600Y005400D03*
X026500Y004200D03*
X024500Y004600D03*
X024500Y006600D03*
X024500Y007850D03*
X025600Y008500D03*
X026600Y008500D03*
X027600Y008400D03*
X028600Y008400D03*
X029600Y008400D03*
X030600Y008400D03*
X031800Y008500D03*
X031700Y007200D03*
X032900Y007200D03*
X038100Y005200D03*
X026500Y007200D03*
X022500Y007850D03*
D17*
X006600Y002700D03*
X008600Y002700D03*
X010600Y002700D03*
X012600Y002700D03*
X014600Y002700D03*
X002600Y009200D03*
X002600Y012200D03*
X002600Y015200D03*
X003100Y018300D03*
X020200Y024700D03*
X020700Y027500D03*
D18*
X020356Y002625D02*
X020356Y001975D01*
X018978Y001975D02*
X018978Y002625D01*
X017600Y002625D02*
X017600Y001975D01*
X021734Y001975D02*
X021734Y002625D01*
X023112Y002625D02*
X023112Y001975D01*
X024490Y001975D02*
X024490Y002625D01*
X025868Y002625D02*
X025868Y001975D01*
X027246Y001975D02*
X027246Y002625D01*
X028624Y002625D02*
X028624Y001975D01*
X030002Y001975D02*
X030002Y002625D01*
X031380Y002625D02*
X031380Y001975D01*
X032757Y001975D02*
X032757Y002625D01*
D19*
X022500Y004600D03*
X022500Y006600D03*
D20*
X037600Y020916D03*
X037600Y022884D03*
D21*
X037900Y016100D03*
X036900Y016100D03*
X035900Y016100D03*
X034900Y016100D03*
X033900Y016100D03*
X032900Y016100D03*
X031900Y016100D03*
X030900Y016100D03*
X029900Y016100D03*
X028900Y016100D03*
X027900Y016100D03*
X026900Y016100D03*
X025900Y016100D03*
X024900Y016100D03*
X024900Y010100D03*
X025900Y010100D03*
X026900Y010100D03*
X027900Y010100D03*
X028900Y010100D03*
X029900Y010100D03*
X030900Y010100D03*
X031900Y010100D03*
X032900Y010100D03*
X033900Y010100D03*
X034900Y010100D03*
X035900Y010100D03*
X036900Y010100D03*
X037900Y010100D03*
X038900Y010100D03*
X038900Y016100D03*
D22*
X021200Y021700D03*
X020400Y018700D03*
D23*
X006039Y018188D02*
X006039Y013188D01*
X006039Y008188D01*
D24*
X015961Y008188D02*
X016588Y008188D01*
X018100Y009700D01*
X018800Y009700D01*
X015972Y008200D02*
X015961Y008188D01*
X017849Y011900D02*
X016561Y013188D01*
X015961Y013188D01*
X017672Y014100D02*
X016561Y015212D01*
X015961Y015212D01*
X017672Y014100D02*
X018800Y014100D01*
X018800Y011900D02*
X017849Y011900D01*
X023400Y005500D02*
X024500Y006600D01*
X023400Y005500D02*
X021500Y005500D01*
X018978Y002978D01*
X018978Y002300D01*
X021734Y002300D02*
X021734Y003834D01*
X022500Y004600D01*
X024500Y004600D01*
X025400Y024400D02*
X023100Y024400D01*
X025400Y024400D02*
X027900Y026900D01*
X032349Y026900D01*
X032361Y026912D01*
X033100Y028400D02*
X033900Y029200D01*
X034900Y029200D02*
X034900Y029700D01*
X034500Y030100D01*
X032572Y030100D01*
X032361Y029888D01*
X033100Y028400D02*
X025200Y028400D01*
X023712Y029888D01*
X022439Y029888D01*
D25*
X022339Y029788D01*
X016576Y029788D01*
X013988Y029788D01*
X012100Y027900D01*
X012100Y024700D01*
X015619Y021181D01*
X015714Y021181D01*
X019700Y024700D02*
X020200Y024700D01*
X019700Y024700D02*
X018561Y025839D01*
X018561Y026812D01*
D26*
X020400Y018700D02*
X022800Y018700D01*
X023100Y018400D01*
X021734Y002300D02*
X020356Y002300D01*
X018978Y002300D02*
X017600Y002300D01*
D27*
X023112Y002300D02*
X023112Y002412D01*
X024300Y003600D01*
X024900Y003600D01*
X026700Y005400D01*
X027600Y005400D01*
X028168Y004600D02*
X029800Y004600D01*
X030600Y005400D01*
X031700Y004200D02*
X029146Y004200D01*
X027246Y002300D01*
X028624Y002300D02*
X029724Y003400D01*
X031800Y003400D01*
X032300Y003900D01*
X032300Y004700D01*
X033000Y005400D01*
X033900Y005400D01*
X034400Y004800D02*
X032757Y003157D01*
X032757Y002300D01*
X034400Y004800D02*
X037700Y004800D01*
X038100Y005200D01*
X035900Y008400D02*
X035900Y010100D01*
X034900Y010100D02*
X034900Y008400D01*
X029900Y010100D02*
X029750Y009950D01*
X029600Y009800D01*
X029600Y008400D01*
X028600Y008400D02*
X028600Y009800D01*
X028900Y010100D01*
X028600Y011700D02*
X031400Y014500D01*
X032300Y014500D01*
X033900Y016100D01*
X032900Y016100D02*
X031700Y014900D01*
X030800Y014900D01*
X028600Y012700D01*
X028700Y013700D02*
X030300Y015300D01*
X031100Y015300D01*
X031900Y016100D01*
X025600Y014700D02*
X022400Y014700D01*
X021800Y015300D01*
X022400Y013700D02*
X025600Y013700D01*
X025600Y012700D02*
X023600Y012700D01*
X021800Y010900D01*
X021800Y008700D02*
X024800Y011700D01*
X025600Y011700D01*
X022400Y013700D02*
X021800Y013100D01*
X028168Y004600D02*
X025868Y002300D01*
X024490Y002300D02*
X026390Y004200D01*
X026500Y004200D01*
X039700Y020000D02*
X039700Y022100D01*
X036300Y025500D01*
X034300Y025500D01*
X033900Y026100D01*
X033900Y026200D01*
D28*
X013600Y018200D02*
X008639Y023161D01*
X008639Y026812D01*
X013600Y018200D02*
X013600Y010200D01*
X013612Y010212D01*
X013600Y010200D02*
X013600Y006200D01*
X014588Y005212D01*
X015961Y005212D01*
D29*
X015961Y010212D02*
X013612Y010212D01*
X013600Y018200D02*
X015961Y018200D01*
X015961Y018188D01*
X016888Y018188D01*
X020750Y022050D01*
X021200Y021700D01*
X020750Y022050D02*
X023100Y024400D01*
D30*
X014588Y005212D02*
X014588Y002700D01*
X014600Y002700D01*
D31*
X006600Y002700D01*
D32*
X034100Y024300D02*
X034100Y024400D01*
D33*
X034600Y024900D01*
X036000Y024900D01*
X036000Y023900D02*
X034100Y022000D01*
X034100Y021400D01*
X036000Y020000D02*
X037000Y020000D01*
X037600Y019400D01*
X037600Y017650D01*
X036600Y017650D02*
X036000Y018250D01*
X036000Y019000D01*
X037600Y020916D02*
X038600Y019916D01*
X038600Y019400D01*
X038600Y017650D01*
X032800Y019300D02*
X032800Y023100D01*
X034100Y024400D01*
X036000Y023900D02*
X036584Y023900D01*
X037600Y022884D01*
X032800Y019300D02*
X030400Y016900D01*
X026700Y016900D01*
X025900Y016100D01*
X024500Y007850D02*
X024500Y006600D01*
X022500Y006600D02*
X022500Y007850D01*
D34*
X026500Y007200D02*
X026800Y007200D01*
X028600Y005400D01*
X029600Y005400D02*
X031400Y007200D01*
X031700Y007200D01*
X031800Y007800D02*
X031200Y007800D01*
X030600Y008400D01*
X031800Y008500D02*
X031800Y007800D01*
X036300Y007800D01*
X036900Y008400D01*
X038100Y008200D02*
X038100Y007600D01*
X035900Y005400D01*
X034900Y005400D02*
X033100Y007200D01*
X032900Y007200D01*
X033900Y008400D02*
X033800Y008500D01*
X032800Y008500D01*
X034900Y010100D02*
X034900Y011200D01*
X034400Y011700D01*
X034400Y012700D02*
X035900Y011200D01*
X035900Y010100D01*
X037400Y011700D02*
X037400Y013700D01*
X037400Y014700D01*
X037900Y015200D01*
X037900Y016100D01*
X034400Y014700D02*
X033500Y014700D01*
X028900Y010100D01*
X029750Y009950D02*
X033500Y013700D01*
X034400Y013700D01*
X037400Y012700D02*
X037400Y011700D01*
X027600Y008400D02*
X027500Y008500D01*
X026600Y008500D01*
X025300Y015300D02*
X022800Y015300D01*
X021800Y016300D01*
X021900Y016300D01*
X021800Y016300D02*
X021800Y016200D01*
X025300Y015300D02*
X025900Y015900D01*
X025900Y016100D01*
M02*
